<?xml version="1.0" encoding="utf-8"?>
<!-- Generator: Adobe Illustrator 27.0.1, SVG Export Plug-In . SVG Version: 6.00 Build 0)  -->
<svg version="1.1" id="Calque_1" xmlns="http://www.w3.org/2000/svg" xmlns:xlink="http://www.w3.org/1999/xlink" x="0px" y="0px"
	 viewBox="0 0 158 32.28" style="enable-background:new 0 0 158 32.28;" xml:space="preserve">
<style type="text/css">
	.st0{fill:#0b2f5f;}
</style>
<g>
	<path class="st0" d="M5.6,18.52c0.63-0.93,1.9-2.81,3.88-5.69L9.5,12.8c1.72-2.51,3.36-4.88,5.33-6.99c1.03-1.11,2.43-1.8,3.66-1.8
		c0.91,0,2.1,0.38,2.64,2.18c0.7,2.31,0.5,6.64,0.45,7.63C20.43,14.25,14.32,16.47,5.6,18.52L5.6,18.52z"/>
	<path class="st0" d="M0,15.83c0.08-4.25,1.8-8.24,4.84-11.21C7.88,1.64,11.89,0,16.13,0c0.11,0,0.21,0,0.32,0
		c6.44,0.13,12.14,4.03,14.6,9.96c-0.85,0.39-3.12,1.42-6.29,2.65c-0.43-2.85-0.98-6.21-1.51-7.97c-0.62-2.08-2.11-3.27-4.1-3.27
		c-1.13,0-2.38,0.37-3.7,1.11c-1.53,0.85-4.26,3.03-8.13,6.46c-3.08,2.74-5.98,5.6-7.34,6.98C0,15.89,0,15.86,0,15.83L0,15.83z"/>
	<path class="st0" d="M16.14,32.28c-0.11,0-0.21,0-0.32,0c-5.66-0.11-10.87-3.21-13.69-8.1c2.1-0.9,9.59-3.98,19.25-6.5l-1.24,14.11
		C18.85,32.11,17.5,32.28,16.14,32.28L16.14,32.28L16.14,32.28z"/>
	<path class="st0" d="M26.66,28.38c-0.21-2.05-0.79-7.47-1.34-11.64c3.69-0.74,5.98-1.11,6.94-1.26c0.01,0.32,0.02,0.65,0.01,0.97
		C32.19,21.07,30.15,25.38,26.66,28.38L26.66,28.38z"/>
	<path class="st0" d="M46.59,4.63h3.34l9.35,21.71h-4.41l-2.02-4.97h-9.41l-1.96,4.97h-4.32L46.59,4.63L46.59,4.63z M51.49,18.06
		l-3.34-8.83l-3.4,8.83H51.49L51.49,18.06z"/>
	<path class="st0" d="M73.26,26.34h-3.49v-2.36H69.7c-0.68,1.47-2.05,2.73-4.51,2.73c-3.96,0-5.36-2.79-5.36-5.79v-9.29h3.68v7.45
		c0,1.63,0.12,4.32,2.7,4.32c2.42,0,3.37-1.78,3.37-3.74v-8.03h3.68L73.26,26.34L73.26,26.34z"/>
	<path class="st0" d="M87.55,24.13h-0.06c-1.07,1.78-3,2.58-5.06,2.58c-4.54,0-7.27-3.37-7.27-7.73s2.91-7.73,7.11-7.73
		c2.76,0,4.23,1.29,5,2.24h0.09V4.63h3.68v21.71h-3.5L87.55,24.13L87.55,24.13z M83.16,23.39c2.7,0,4.32-2.12,4.32-4.41
		c0-2.3-1.63-4.41-4.32-4.41c-2.7,0-4.32,2.11-4.32,4.41C78.84,21.28,80.46,23.39,83.16,23.39L83.16,23.39z"/>
	<path class="st0" d="M96.62,20.27c0.25,2.18,1.9,3.49,3.96,3.49c1.84,0,3.03-0.86,3.95-1.99l2.64,1.99
		c-1.72,2.11-3.9,2.94-6.22,2.94c-4.45,0-8-3.1-8-7.73c0-4.63,3.56-7.73,8-7.73c4.11,0,6.9,2.88,6.9,8v1.01L96.62,20.27L96.62,20.27
		z M104.16,17.51c-0.03-2.15-1.44-3.5-3.74-3.5c-2.18,0-3.53,1.38-3.8,3.5H104.16L104.16,17.51z"/>
	<path class="st0" d="M109.74,11.62h3.5v2.36h0.06c0.68-1.47,2.06-2.73,4.51-2.73c3.95,0,5.36,2.79,5.36,5.79v9.29h-3.68v-7.45
		c0-1.62-0.12-4.32-2.7-4.32c-2.42,0-3.37,1.78-3.37,3.74v8.03h-3.68V11.62L109.74,11.62z"/>
	<path class="st0" d="M135.86,16.03c-0.86-0.89-1.81-1.47-2.79-1.47c-2.7,0-4.32,2.11-4.32,4.41c0,2.3,1.63,4.41,4.32,4.41
		c1.13,0,2.18-0.49,2.85-1.38l2.45,2.64c-1.5,1.5-4.02,2.06-5.3,2.06c-4.45,0-8-3.1-8-7.73c0-4.63,3.56-7.73,8-7.73
		c1.87,0,3.92,0.67,5.34,2.24L135.86,16.03L135.86,16.03z"/>
	<path class="st0" d="M140.92,4.41c1.35,0,2.39,0.95,2.39,2.21c0,1.26-1.04,2.21-2.39,2.21c-1.35,0-2.33-1.04-2.33-2.21
		C138.59,5.46,139.57,4.41,140.92,4.41L140.92,4.41z M139.11,11.62h3.68v14.72h-3.68V11.62L139.11,11.62z"/>
	<path class="st0" d="M154.69,24.31h-0.09c-1.04,1.66-2.76,2.39-4.72,2.39c-2.73,0-5.37-1.5-5.37-4.42c0-4.78,5.58-5.12,9.26-5.12
		h0.92v-0.4c0-1.81-1.41-2.76-3.37-2.76c-1.53,0-2.94,0.61-3.92,1.53l-1.93-1.93c1.63-1.66,3.92-2.36,6.25-2.36
		c6.29,0,6.29,4.54,6.29,6.62v8.46h-3.31L154.69,24.31L154.69,24.31z M154.47,19.74h-0.77c-2.02,0-5.52,0.15-5.52,2.27
		c0,1.35,1.38,1.93,2.58,1.93c2.51,0,3.71-1.32,3.71-3.37L154.47,19.74L154.47,19.74z"/>
</g>
</svg>
