<svg width="171" height="109" viewBox="0 0 171 109" fill="none" xmlns="http://www.w3.org/2000/svg">
<path d="M163.226 77.9613V85.763H168.888V84.1686H164.967V77.9613H163.226ZM159.606 81.861C159.634 83.246 158.529 84.3932 157.136 84.4216C155.744 84.45 154.591 83.3507 154.562 81.9657C154.562 81.9308 154.562 81.8959 154.562 81.861C154.516 80.5088 155.582 79.3768 156.941 79.331C156.99 79.331 157.038 79.331 157.084 79.331C158.428 79.283 159.557 80.3256 159.608 81.6626C159.61 81.728 159.608 81.7934 159.608 81.8589M161.323 81.8589C161.393 79.5317 159.551 77.5883 157.211 77.5207C154.871 77.4509 152.917 79.283 152.849 81.6102C152.782 83.9374 154.621 85.8807 156.961 85.9483C157.003 85.9483 157.044 85.9483 157.086 85.9483C159.242 86.1294 161.134 84.5372 161.316 82.3932C161.331 82.2144 161.334 82.0355 161.325 81.8567M149.681 81.8567C149.709 83.2416 148.604 84.3889 147.212 84.4172C145.819 84.4456 144.666 83.3463 144.637 81.9614C144.637 81.9265 144.637 81.8916 144.637 81.8567C144.609 80.4717 145.714 79.3245 147.106 79.2961C148.499 79.2677 149.652 80.367 149.681 81.752C149.681 81.7869 149.681 81.8218 149.681 81.8567ZM151.396 81.8567C151.466 79.5295 149.624 77.5861 147.284 77.5185C144.944 77.4487 142.991 79.2808 142.923 81.608C142.852 83.9352 144.694 85.8786 147.034 85.9462C147.076 85.9462 147.117 85.9462 147.159 85.9462C149.315 86.125 151.209 84.5328 151.389 82.3888C151.404 82.2122 151.407 82.0333 151.398 81.8545M141.019 85.7673V77.9657H139.293V81.0868H135.785V77.9657H134.033V85.7673H135.783V82.6746H139.291V85.7673H141.019ZM131.303 83.6037C130.77 84.0748 130.086 84.3387 129.373 84.3496C128.11 84.4456 127.007 83.5056 126.908 82.2493C126.899 82.1402 126.899 82.029 126.908 81.9199C126.825 80.62 127.816 79.4968 129.123 79.4139C129.206 79.4095 129.29 79.4073 129.373 79.4117C130.029 79.3921 130.667 79.6233 131.156 80.0573L132.254 78.9777C131.493 78.2078 130.454 77.7737 129.369 77.7737C127.174 77.6559 125.299 79.3288 125.18 81.5099C125.174 81.6429 125.171 81.776 125.18 81.9068C125.027 83.9941 126.603 85.8109 128.702 85.9636C128.926 85.9789 129.149 85.9767 129.371 85.9549C130.491 85.992 131.577 85.5776 132.386 84.8055L131.305 83.6015L131.303 83.6037ZM123.435 78.8773C122.713 78.0289 121.623 77.5818 120.51 77.6734C118.896 77.6734 117.418 78.5 117.4 80.0486C117.378 81.8872 118.858 82.3016 120.518 82.4565C121.584 82.5459 122.108 82.8491 122.097 83.5056C122.097 84.0639 121.457 84.4303 120.527 84.4303C119.604 84.4325 118.725 84.029 118.128 83.3267L117.087 84.4085C117.878 85.4925 119.172 86.0988 120.516 86.0138C122.207 86.0007 123.823 85.2417 123.823 83.5056C123.823 81.7694 122.354 81.1086 120.808 80.9755C119.799 80.8861 119.115 80.7552 119.115 80.0377C119.115 79.5033 119.742 79.1805 120.516 79.1805C121.185 79.1631 121.834 79.3986 122.332 79.8436L123.433 78.8795L123.435 78.8773ZM112.131 78.8773C111.409 78.0289 110.319 77.5818 109.205 77.6734C107.592 77.6734 106.114 78.5 106.096 80.0486C106.074 81.8872 107.554 82.3016 109.214 82.4565C110.28 82.5459 110.804 82.8491 110.793 83.5056C110.793 84.0639 110.153 84.4303 109.223 84.4303C108.3 84.4325 107.42 84.029 106.824 83.3267L105.782 84.4085C106.574 85.4925 107.868 86.0988 109.212 86.0138C110.903 86.0007 112.517 85.2417 112.517 83.5056C112.517 81.7694 111.05 81.1086 109.501 80.9755C108.493 80.8861 107.811 80.7552 107.811 80.0377C107.811 79.5033 108.438 79.1805 109.212 79.1805C109.881 79.1631 110.53 79.4008 111.028 79.8436L112.131 78.8795V78.8773ZM104.197 78.8773C103.476 78.0289 102.386 77.5818 101.272 77.6734C99.6578 77.6734 98.1799 78.5 98.1623 80.0486C98.1404 81.8872 99.6205 82.3016 101.281 82.4565C102.346 82.5459 102.87 82.8491 102.859 83.5056C102.859 84.0639 102.219 84.4303 101.289 84.4303C100.366 84.4325 99.4868 84.029 98.8903 83.3267L97.8487 84.4085C98.6403 85.4925 99.9341 86.0988 101.278 86.0138C102.969 86.0007 104.583 85.2417 104.583 83.5056C104.583 81.7694 103.116 81.1086 101.568 80.9755C100.559 80.8861 99.8771 80.7552 99.8771 80.0377C99.8771 79.5033 100.504 79.1805 101.278 79.1805C101.947 79.1631 102.596 79.4008 103.094 79.8436L104.195 78.8795L104.197 78.8773ZM96.476 84.149H92.2175V82.5786H96.0835V81.0519H92.2175V79.5469H96.3181V77.9547H90.4961V85.7564H96.4694L96.476 84.149ZM82.5427 77.9526H81.0428V85.7542H82.819V83.3245L82.7532 80.7596L86.6521 85.7542H88.152V77.9526H86.3933V80.572L86.5052 83.0214L82.5427 77.9504V77.9526ZM78.6899 77.9526H76.9532V85.7542H78.6899V77.9526ZM74.7538 78.8752C74.0323 78.0267 72.9425 77.5774 71.8285 77.6712C70.2146 77.6712 68.7366 78.4978 68.7257 80.0464C68.7015 81.885 70.1817 82.2994 71.8417 82.4543C72.9074 82.5437 73.4315 82.8469 73.4227 83.5034C73.4227 84.0617 72.7824 84.4281 71.8526 84.4281C70.9273 84.4303 70.0479 84.0268 69.4515 83.3245L68.4099 84.4063C69.2015 85.4903 70.4953 86.0945 71.8395 86.0116C73.5323 85.9985 75.1463 85.2395 75.1463 83.5034C75.1463 81.7672 73.6793 81.1064 72.1311 80.9733C71.1224 80.8839 70.4383 80.753 70.4383 80.0355C70.4383 79.5011 71.0676 79.1783 71.8395 79.1783C72.5083 79.1609 73.1574 79.3964 73.6552 79.8414L74.7538 78.8773V78.8752ZM65.0373 77.9613V82.3169C65.0373 83.4859 64.6119 84.3038 63.4234 84.378C62.4191 84.5132 61.4959 83.8131 61.3599 82.812C61.338 82.6462 61.338 82.4805 61.3599 82.3147V77.9547H59.6232V82.3147C59.4806 84.1817 60.8884 85.8088 62.7633 85.9483C62.9782 85.9636 63.1953 85.9593 63.4102 85.9353C65.2061 86.0072 66.7214 84.6201 66.7938 82.8338C66.8003 82.6593 66.7938 82.487 66.774 82.3147V77.9547L65.0373 77.9591V77.9613ZM50.9834 77.9504V85.7521H54.9174C56.4874 85.7521 57.5422 85.1828 57.7768 83.9221C57.9829 82.9668 57.4545 82.0028 56.5335 81.6604C57.1804 81.3965 57.597 80.7618 57.5751 80.066C57.5751 78.6156 56.3405 77.9482 54.8516 77.9482H50.9834V77.9504ZM52.6982 79.4531H54.8516C55.5182 79.4531 55.8515 79.7847 55.8515 80.247C55.8515 80.7094 55.5182 80.9821 54.8318 80.9821H52.7026L52.6982 79.4553V79.4531ZM52.6982 82.4346H54.8274C55.6037 82.4346 56.005 82.8033 56.005 83.3485C56.005 83.8938 55.6344 84.2406 54.8494 84.2406H52.696V82.4346H52.6982Z" fill="#252525"/>
<path d="M24.4501 62.8481C24.4721 65.4959 23.0928 67.9584 20.821 69.3346C18.4001 70.977 15.0911 71.7992 10.8896 71.7992C8.76258 71.8188 6.63991 71.6007 4.5611 71.1514C2.99761 70.8243 1.4692 70.3444 0 69.7163V62.8699H0.767493C1.18413 63.1622 1.66875 63.4828 2.22134 63.8296C2.96691 64.2702 3.74756 64.6453 4.55891 64.9507C5.51718 65.3345 6.50615 65.6399 7.51266 65.8667C8.67267 66.1284 9.859 66.2549 11.0475 66.2484C12.2887 66.3138 13.532 66.1284 14.6986 65.701C15.3981 65.4676 15.8718 64.822 15.8849 64.0892C15.9266 63.5373 15.6569 63.0095 15.1876 62.7151C14.3521 62.3094 13.4574 62.0302 12.5365 61.8928C11.9137 61.7554 11.0738 61.6049 10.0125 61.4413C9.03888 61.2974 8.07184 61.0989 7.12014 60.8525C5.10931 60.4402 3.26952 59.4391 1.8376 57.9756C0.673201 56.6234 0.0592066 54.8851 0.118413 53.1053C0.14692 50.5535 1.49552 48.1957 3.69055 46.8718C6.06978 45.2142 9.32175 44.3854 13.4487 44.3854C15.3367 44.3789 17.2204 44.5752 19.0667 44.9743C20.503 45.2578 21.9086 45.6788 23.266 46.2306V52.7891H22.5446C21.2332 51.9101 19.8057 51.2143 18.3036 50.7258C16.7489 50.2023 15.1196 49.934 13.4794 49.9297C12.3194 49.897 11.1637 50.0845 10.0739 50.4815C9.15291 50.8523 8.69241 51.3801 8.69241 52.0584C8.65952 52.6037 8.89415 53.1293 9.32175 53.4695C10.2384 53.9712 11.2383 54.3005 12.2733 54.4423C13.1263 54.6124 14.0451 54.776 15.0297 54.9374C16.0165 55.101 17.0033 55.306 17.9966 55.5503C19.8649 55.9298 21.5688 56.872 22.8823 58.2461C23.9589 59.5307 24.5225 61.1643 24.4633 62.835" fill="#252525"/>
<path d="M40.6377 52.2504L45.7338 48.3441L49.9967 45.0921H54.8824L47.6482 55.7357L59.2987 71.2344H50.1546L38.3878 55.5133V78.2225H29.9937V40.9634H32.2435L40.6399 52.2504H40.6377Z" fill="#252525"/>
<path d="M79.3327 54.7617C79.3962 53.3352 78.9336 51.935 78.0279 50.8248C76.9907 49.8652 75.5961 49.3853 74.1839 49.5053C72.7497 49.4464 71.3398 49.887 70.1973 50.755C69.0658 51.7823 68.4321 53.2393 68.4518 54.7617H79.3305H79.3327ZM87.6654 59.6429H68.4759C68.4978 61.4684 69.3596 63.1827 70.8157 64.2973C72.7037 65.4947 74.9272 66.0596 77.1617 65.9069C78.9204 65.9069 80.6637 65.5885 82.3083 64.9647C83.7074 64.4718 85.0318 63.7913 86.2445 62.9363H87.1764V69.6169C85.4463 70.3235 83.6569 70.8732 81.8259 71.2592C79.9949 71.6147 78.131 71.7849 76.2649 71.7696C71.024 71.7696 67.0067 70.5984 64.2108 68.2559C61.4172 65.9134 60.0203 62.5764 60.0247 58.2448C59.8317 54.4432 61.2746 50.742 63.9916 48.0614C66.6383 45.5576 70.2631 44.3056 74.8702 44.3013C79.1199 44.3013 82.3149 45.3678 84.4551 47.5031C86.5953 49.6383 87.6654 52.7115 87.6676 56.7224V59.6429H87.6654Z" fill="#252525"/>
<path d="M119.067 52.6692V71.0752H110.675V58.1022C110.675 56.8372 110.644 55.7619 110.58 54.8764C110.552 54.1305 110.379 53.3955 110.07 52.7128C109.804 52.1719 109.355 51.7422 108.802 51.4979C108.043 51.21 107.232 51.0792 106.421 51.1162C105.596 51.1162 104.78 51.2842 104.024 51.6113C103.305 51.9167 102.605 52.2678 101.932 52.6648V71.0708H93.5311V45.1096H101.925V47.9799C103.204 46.9548 104.59 46.0714 106.059 45.3408C107.423 44.6995 108.914 44.3746 110.423 44.3942C112.017 44.3615 113.589 44.7584 114.975 45.5393C116.317 46.3288 117.394 47.4979 118.067 48.8981C119.56 47.6156 121.194 46.5055 122.941 45.5916C124.369 44.826 125.961 44.4138 127.584 44.3877C129.996 44.2241 132.353 45.151 134.002 46.909C135.465 48.5906 136.195 51.0115 136.195 54.1697V71.073H127.801V58.1022C127.801 56.8219 127.774 55.7423 127.722 54.8633C127.7 54.1196 127.529 53.3889 127.222 52.7128C126.97 52.1675 126.522 51.7357 125.965 51.4979C125.196 51.2078 124.373 51.0792 123.551 51.1162C122.854 51.1162 122.161 51.2362 121.505 51.4739C120.657 51.7989 119.841 52.198 119.062 52.6648" fill="#252525"/>
<path d="M159.748 64.2921V58.8918C158.619 58.9812 157.398 59.1077 156.084 59.2713C155.071 59.3716 154.067 59.5614 153.086 59.8362C152.354 60.0347 151.692 60.4294 151.172 60.9791C150.709 61.5309 150.473 62.2353 150.505 62.9529C150.494 63.3957 150.54 63.8384 150.644 64.2681C150.771 64.6541 151.014 64.9944 151.341 65.2387C151.711 65.5571 152.146 65.7883 152.617 65.9192C153.378 66.0958 154.156 66.17 154.937 66.1395C155.808 66.1307 156.669 65.9584 157.476 65.6313C158.301 65.3128 159.066 64.8613 159.742 64.2921M159.742 68.3227C159.296 68.6629 158.733 69.0708 158.071 69.5506C157.476 69.9825 156.845 70.362 156.183 70.6826C155.365 71.0512 154.51 71.326 153.63 71.5049C152.674 71.6881 151.701 71.7775 150.727 71.771C148.431 71.8386 146.201 71.0163 144.501 69.4765C142.844 67.9868 141.927 65.8472 141.995 63.6247C141.923 61.9802 142.37 60.3553 143.273 58.9747C144.197 57.714 145.449 56.7303 146.896 56.1305C148.734 55.3606 150.672 54.8612 152.654 54.6496C154.948 54.3595 157.325 54.1436 159.786 54.0018V53.8644C159.886 52.6016 159.178 51.4129 158.018 50.8938C156.36 50.2635 154.586 49.9843 152.814 50.0737C151.315 50.0934 149.823 50.3376 148.398 50.8022C146.837 51.2864 145.712 51.6615 145.03 51.9233H144.262V45.6505C145.146 45.4215 146.585 45.1467 148.574 44.8305C150.554 44.5142 152.556 44.355 154.56 44.355C159.316 44.355 162.755 45.0835 164.871 46.5426C166.989 48.0017 168.046 50.2853 168.044 53.3977V71.0752H159.739L159.746 68.3227H159.742Z" fill="#252525"/>
<path d="M46.8391 42.7239C46.8391 45.3739 44.6791 47.5201 42.017 47.5201C39.3549 47.5201 37.1949 45.3717 37.1949 42.7239C37.1949 40.0761 39.3549 37.9277 42.017 37.9277C44.6791 37.9277 46.8391 40.0717 46.8391 42.7195V42.7239Z" fill="#252525"/>
</svg>
