<svg enable-background="new 0 0 100 100" viewBox="0 0 100 100" xmlns="http://www.w3.org/2000/svg"><g fill="#ffffff"><path d="m50 98.9c-26.9 0-48.8-22.1-48.8-49s21.9-48.8 48.8-48.8 48.8 21.9 48.8 48.8-21.9 49-48.8 49m0-94.4c-25.1 0-45.6 20.5-45.6 45.6s20.5 45.6 45.6 45.6 45.6-20.5 45.6-45.6-20.5-45.6-45.6-45.6"/><path d="m50 37.9c-1.6 0-3.2.4-4.7.9v3.9c1.3-.9 2.9-1.4 4.7-1.4 4.5 0 8.1 3.6 8.1 8.1s-3.6 8.1-8.1 8.1c-4.3 0-7.9-3.6-8.1-7.9v-8.3-23l-3.6 3.1v28.2c0 6.3 5.2 11.5 11.5 11.5s11.5-5.2 11.5-11.5-4.8-11.7-11.3-11.7"/><path d="m53.8 49.6c0 2-1.6 3.8-3.8 3.8-2 0-3.8-1.6-3.8-3.8 0-2 1.6-3.8 3.8-3.8s3.8 1.6 3.8 3.8"/><path d="m36.7 55.8c-1.1.7-2.7 1.4-4.7 1.4-3.4 0-4.7-1.4-4.7-5.4v-10.1h7.4v-3.1h-7.4v-7.7l-3.8 3.2v4.5h-3.2v3.1h3.2v10.2c0 2.7.5 4.8 1.8 6.3 1.4 1.8 3.6 2.7 6.6 2.7 2.7 0 5-.9 6.6-2-.7-.9-1.2-1.8-1.8-3.1"/><path d="m72.1 47.8c-3.1-.9-5.7-1.6-5.7-3.4 0-1.6 1.8-2.9 4.3-2.9 2.2 0 4.5.7 6.6 2l.2.2 1.6-2.9-.2-.2c-2.3-1.4-5.4-2.2-8.3-2.2-3.1 0-5.4 1.1-6.8 2.7-.2.2-.4.4-.4.5 0 .2-.2.2-.2.4s-.2.2-.2.4v.2c-.4.7-.5 1.4-.5 2.3 0 2 1.1 3.2 2.3 4.3 1.6 1.1 3.8 1.6 5.4 2.2 3.1.7 5.6 1.6 5.6 3.6s-1.8 3.2-4.5 3.2c-2.5 0-5-.9-7.5-2.5h-.2c-.4 1.1-1.1 2-1.6 2.9 2.5 1.6 5.9 2.7 9 2.7 5 0 8.4-2.7 8.4-6.6.2-4.6-3.6-5.9-7.3-6.9"/><path d="m41.4 66.4v7c0 .5-.4.9-.9.9h-.5c-.5 0-.9-.4-.9-.9v-7h-1.1v7c0 1.3.9 2.3 2 2.3h.7c1.1 0 2-1.1 2-2.3v-7z"/><path d="m29.7 67.1c0-.4-.2-.7-.5-.7h-3.6v9.2h3.6c.4 0 .5-.4.5-.7 0-.4-.2-.7-.5-.7h-2.3v-2.7h2c.4 0 .5-.4.5-.7s-.2-.8-.6-.8h-2v-2.7h2.3c.4.6.6.2.6-.2"/><path d="m34.2 66.4h-2.5v9.2h2.5c1.1 0 2-1.1 2-2.3v-4.7c0-1.1-.9-2.2-2-2.2m.9 7c0 .5-.4 1.1-.9 1.1h-1.4v-6.6h1.4c.5 0 .9.4.9.9z"/><path d="m46.4 67.7h.5c.4 0 .5.2.7.5 0 .2.2.4.4.4h.4c.4-.2.4-.5.4-.9-.4-.7-1.1-1.3-1.8-1.3h-.5c-1.1 0-2 1.1-2 2.3v4.7c0 1.3.9 2.3 2 2.3h.5c.7 0 1.4-.5 1.8-1.3.2-.4 0-.7-.2-.9-.2 0-.4 0-.4 0-.2 0-.4.2-.4.4-.2.4-.4.5-.7.5h-.5c-.5 0-.9-.4-.9-.9v-4.7c-.2-.6.2-1.1.7-1.1"/><path d="m59.7 66.4h-3.4c-.4 0-.5.4-.5.7 0 .4.2.7.5.7h1.1v7.9h1.3v-7.9h1.1c.4 0 .5-.4.5-.7-.1-.3-.3-.7-.6-.7"/><path d="m62.6 66.4c-.4 0-.5.4-.5.7v7.9c0 .4.2.7.5.7.4 0 .5-.4.5-.7v-7.9c0-.3-.4-.7-.5-.7"/><path d="m67.8 66.4h-.5c-1.1 0-2 1.1-2 2.3v4.7c0 1.3.9 2.3 2 2.3h.5c1.1 0 2-1.1 2-2.3v-4.7c-.1-1.2-1-2.3-2-2.3m.9 7c0 .5-.4.9-.9.9h-.5c-.5 0-.9-.4-.9-.9v-4.7c0-.5.4-1.1.9-1.1h.5c.5 0 .9.4.9 1.1z"/><path d="m76.2 66.4h-1.1v5.7l-2.3-5.4c-.2-.4-.4-.4-.7-.4-.2 0-.4.4-.4.7v8.6h1.1v-5.6l2.3 5.4c.2.2.4.4.5.4h.2c.2 0 .4-.4.4-.7z"/><path d="m53.2 67c0-.4-.4-.5-.5-.5s-.5.2-.5.5l-2.2 8.7h1.3l.4-1.8h2.3l.4 1.8h1.3zm-1.4 5.7.7-3.2.9 3.2z"/></g></svg>