<?xml version="1.0" encoding="utf-8"?>
<!-- Generator: Adobe Illustrator 22.0.1, SVG Export Plug-In . SVG Version: 6.00 Build 0)  -->
<svg version="1.1" id="Calque_1" xmlns="http://www.w3.org/2000/svg" xmlns:xlink="http://www.w3.org/1999/xlink" x="0px" y="0px"
	 viewBox="0 0 200 85" style="enable-background:new 0 0 200 85;" xml:space="preserve">
<style type="text/css">
	.st0{fill:#E42535;}
</style>
<g>
	<path d="M121.8,44.4v3.2c0,1,0.2,1.5,0.9,1.5c0.6,0,0.9-0.4,0.9-1.4v-3.3h1.3v3.4c0,0.5,0,2.1-2.3,2.1c-1.4,0-2.3-0.6-2.3-2.1v-3.4
		H121.8"/>
	<polyline points="126.5,44.4 127.7,44.4 130,47.7 130,47.7 130,44.4 131.1,44.4 131.1,49.9 129.9,49.9 127.6,46.6 127.6,46.6 
		127.6,49.9 126.5,49.9 126.5,44.4 	"/>
	<rect x="132.6" y="44.4" width="1.4" height="5.4"/>
	<polyline points="135.1,44.4 136.6,44.4 138.1,48.4 138.1,48.4 139.5,44.4 140.4,44.4 138.5,49.9 137.1,49.9 135.1,44.4 	"/>
	<polyline points="141.4,44.4 145.1,44.4 145.1,45.3 142.9,45.3 142.9,46.7 144.7,46.7 144.7,47.5 142.9,47.5 142.9,49 145.3,49 
		145.3,49.9 141.4,49.9 141.4,44.4 	"/>
	<path d="M146.6,44.4h2.6c0.7,0,1.5,0.4,1.5,1.4c0,0.7-0.4,1.3-1,1.5l1.8,2.5h-1.8l-1.2-2.2H148v2.2h-1.4L146.6,44.4 M147.9,46.9
		h0.5c0.5,0,0.8-0.5,0.8-0.9c0-0.4-0.2-0.6-0.8-0.6h-0.5L147.9,46.9L147.9,46.9z"/>
	<path d="M152.1,48.8c0.5,0.2,0.9,0.3,1.5,0.3c0.4,0,0.9-0.1,0.9-0.6c0-0.9-2.4-0.9-2.4-2.7c0-1.1,1-1.5,1.9-1.5
		c0.5,0,1.1,0,1.6,0.2v1c-0.5-0.1-0.9-0.3-1.4-0.3c-0.3,0-0.7,0.1-0.7,0.5c0,0.8,2.5,0.9,2.5,2.7c0,0.5-0.3,1.6-2.2,1.6
		c-0.7,0-1.3,0-1.7-0.1L152.1,48.8"/>
	<rect x="157.1" y="44.4" width="1.4" height="5.4"/>
	<polyline points="161.5,45.3 159.6,45.3 159.6,44.4 164.9,44.4 164.9,45.3 163,45.3 163,49.9 161.5,49.9 161.5,45.3 	"/>
	<path d="M165.9,44.4h3.7v0.9h-2.3v1.3h1.9v0.8h-1.9V49h2.4v0.9h-3.9V44.4 M167.8,43h1.1l-1.1,1.1H167L167.8,43z"/>
	<path d="M120.3,55.2h2.4c1,0,1.6,0.4,1.6,1.4s-0.7,1.9-1.9,1.9h-0.8v2.1h-1.4V55.2 M121.7,57.7c0.5,0,1.2,0,1.2-0.9
		c0-0.5-0.4-0.7-0.8-0.7c-0.1,0-0.3,0-0.4,0L121.7,57.7L121.7,57.7z"/>
	<path d="M126.4,55.2h1.4l2.1,5.4h-1.4l-0.5-1.4h-2.1l-0.5,1.4h-0.9L126.4,55.2 M127.6,58.4l-0.7-1.9l-0.7,1.9H127.6z"/>
	<path d="M131,55.2h2.6c0.7,0,1.5,0.4,1.5,1.4c0,0.7-0.4,1.3-1,1.5l1.8,2.5H134l-1.2-2.2h-0.5v2.2H131L131,55.2 M132.3,57.6h0.5
		c0.5,0,0.8-0.5,0.8-0.9c0-0.4-0.2-0.6-0.8-0.6h-0.5L132.3,57.6L132.3,57.6z"/>
	<rect x="136.7" y="55.2" width="1.4" height="5.4"/>
	<path d="M139.5,59.5c0.5,0.2,0.9,0.3,1.5,0.3c0.4,0,0.9-0.1,0.9-0.6c0-0.9-2.4-0.9-2.4-2.7c0-1.1,1-1.5,1.9-1.5
		c0.5,0,1.1,0,1.6,0.2v1c-0.5-0.1-0.9-0.3-1.4-0.3c-0.3,0-0.7,0.1-0.7,0.5c0,0.8,2.5,0.9,2.5,2.7c0,0.5-0.3,1.6-2.2,1.6
		c-0.7,0-1.3,0-1.7-0.1L139.5,59.5"/>
	<rect x="144.1" y="57.8" width="1.6" height="0.8"/>
	<polyline points="147,55.2 150.7,55.2 150.7,56.1 148.4,56.1 148.4,57.4 150.3,57.4 150.3,58.2 148.4,58.2 148.4,59.7 150.9,59.7 
		150.9,60.6 147,60.6 147,55.2 	"/>
	<path d="M151.8,59.5c0.5,0.2,0.9,0.3,1.5,0.3c0.4,0,0.9-0.1,0.9-0.6c0-0.9-2.4-0.9-2.4-2.7c0-1.1,1-1.5,1.9-1.5
		c0.5,0,1.1,0,1.6,0.2v1c-0.5-0.1-0.9-0.3-1.4-0.3c-0.3,0-0.7,0.1-0.7,0.5c0,0.8,2.5,0.9,2.5,2.7c0,0.5-0.3,1.6-2.2,1.6
		c-0.7,0-1.3,0-1.7-0.1L151.8,59.5"/>
	<polyline points="158.3,56.1 156.3,56.1 156.3,55.2 161.6,55.2 161.6,56.1 159.7,56.1 159.7,60.6 158.3,60.6 158.3,56.1 	"/>
	<path d="M170,56.3c-0.5-0.2-1-0.3-1.6-0.3c-1.3,0-1.7,0.9-1.7,1.9c0,1.2,0.6,2,1.9,2c0.5,0,1.1-0.2,1.5-0.4v1
		c-0.6,0.2-1.3,0.3-2,0.3c-1.8,0-2.9-1-2.9-2.8s1.2-2.8,2.9-2.8c0.7,0,1.4,0,1.9,0.2L170,56.3"/>
	<path d="M171.3,55.2h2.6c0.7,0,1.5,0.4,1.5,1.4c0,0.7-0.4,1.3-1,1.5l1.8,2.5h-1.8l-1.2-2.2h-0.5v2.2h-1.4L171.3,55.2 M172.6,57.6
		h0.5c0.5,0,0.8-0.5,0.8-0.9c0-0.4-0.2-0.6-0.8-0.6h-0.5L172.6,57.6L172.6,57.6z"/>
	<path d="M177,55.2h3.7v0.9h-2.3v1.3h1.9v0.8h-1.9v1.5h2.4v0.9H177V55.2 M178.9,53.8h1.1l-1.1,1.1h-0.9L178.9,53.8z"/>
	<polyline points="183.6,56.1 181.6,56.1 181.6,55.2 187,55.2 187,56.1 185,56.1 185,60.6 183.6,60.6 183.6,56.1 	"/>
	<polyline points="188,55.2 191.7,55.2 191.7,56.1 189.4,56.1 189.4,57.4 191.3,57.4 191.3,58.2 189.4,58.2 189.4,59.7 191.9,59.7 
		191.9,60.6 188,60.6 188,55.2 	"/>
	<rect x="193.1" y="55.2" width="1.4" height="5.4"/>
	<polyline points="196.1,55.2 197.6,55.2 197.6,59.7 200,59.7 200,60.6 196.1,60.6 196.1,55.2 	"/>
	<polyline points="119.8,65.9 121.3,65.9 122.7,69.9 122.7,69.9 124.1,65.9 125.1,65.9 123.2,71.3 121.8,71.3 119.8,65.9 	"/>
	<path d="M127.1,65.9h1.4l2.1,5.4h-1.4l-0.5-1.4h-2.1l-0.5,1.4H125L127.1,65.9 M128.3,69.1l-0.7-1.9l-0.7,1.9H128.3z"/>
	<polyline points="131.6,65.9 133.1,65.9 133.1,70.4 135.5,70.4 135.5,71.3 131.6,71.3 131.6,65.9 	"/>
	<path d="M139.4,65.9h2.9c0.8,0,2.3,0.5,2.3,2.6c0,1.9-1.1,2.8-2.5,2.8h-2.7V65.9 M140.9,70.4c0.2,0,0.5,0,0.7,0
		c1.3,0,1.6-0.9,1.6-1.9c0-0.8-0.2-1.8-1.5-1.8h-0.7V70.4z"/>
	<polyline points="145.9,65.9 149.6,65.9 149.6,66.8 147.3,66.8 147.3,68.1 149.2,68.1 149.2,68.9 147.3,68.9 147.3,70.4 
		149.8,70.4 149.8,71.3 145.9,71.3 145.9,65.9 	"/>
	<polyline points="153.9,65.9 155.8,65.9 156.9,69.4 156.9,69.4 158.1,65.9 159.7,65.9 159.7,71.3 158.3,71.3 158.3,67.5 
		158.3,67.5 157.2,71 156.1,71 155,67.5 155,67.5 155,71.3 153.9,71.3 153.9,65.9 	"/>
	<path d="M162.8,65.9h1.4l2.1,5.4h-1.4l-0.5-1.4h-2.1l-0.5,1.4h-0.9L162.8,65.9 M164,69.1l-0.7-1.9l-0.7,1.9H164z"/>
	<path d="M167.3,65.9h2.6c0.7,0,1.5,0.4,1.5,1.4c0,0.7-0.4,1.3-1,1.5l1.8,2.5h-1.8l-1.2-2.2h-0.5v2.2h-1.4L167.3,65.9 M168.7,68.4
		h0.5c0.5,0,0.8-0.5,0.8-0.9c0-0.4-0.2-0.6-0.8-0.6h-0.5L168.7,68.4L168.7,68.4z"/>
	<polyline points="173.1,65.9 174.3,65.9 176.6,69.2 176.6,69.2 176.6,65.9 177.8,65.9 177.8,71.3 176.5,71.3 174.2,68.1 
		174.2,68.1 174.2,71.3 173.1,71.3 173.1,65.9 	"/>
	<polyline points="179.3,65.9 183,65.9 183,66.8 180.7,66.8 180.7,68.1 182.6,68.1 182.6,68.9 180.7,68.9 180.7,70.4 183.2,70.4 
		183.2,71.3 179.3,71.3 179.3,65.9 	"/>
	<path d="M0.4,82.3c0-1,0.5-2.1,1.2-2.8c0.6-0.6,1.5-1.1,2.5-1.1c1.1,0,1.9,0.6,2.3,1.4L5.9,80C5.5,79.4,5,78.9,4,78.9
		c-0.8,0-1.6,0.4-2.1,0.9c-0.7,0.7-1.1,1.6-1.1,2.6c0,1.3,0.9,2.1,2.1,2.1c0.9,0,1.5-0.4,2.1-0.9l0.3,0.3c-0.6,0.6-1.3,1.1-2.4,1.1
		C1.6,84.9,0.4,83.9,0.4,82.3"/>
	<path d="M11.6,82.2c0,0.7-0.3,1.4-0.8,1.9c-0.5,0.5-1.1,0.8-1.9,0.8c-1.2,0-2-0.9-2-2c0-0.7,0.3-1.4,0.8-1.9
		c0.5-0.5,1.1-0.8,1.9-0.8C10.8,80.1,11.6,81,11.6,82.2 M10.4,83.8c0.5-0.5,0.7-1,0.7-1.7c0-1-0.6-1.6-1.6-1.6
		c-0.5,0-1.1,0.3-1.4,0.6c-0.5,0.5-0.7,1-0.7,1.7c0,1,0.6,1.6,1.6,1.6C9.5,84.5,10.1,84.2,10.4,83.8z"/>
	<path d="M13.9,80.3h0.5l-0.2,0.9c0.5-0.5,0.9-0.9,1.7-0.9c0.9,0,1.5,0.6,1.5,1.4c0,0.2,0,0.4-0.1,0.6l-0.7,2.5h-0.5l0.7-2.6
		c0-0.2,0.1-0.4,0.1-0.5c0-0.7-0.5-1.1-1.2-1.1c-0.8,0-1.6,0.7-1.9,1.7l-0.7,2.5h-0.5L13.9,80.3"/>
	<path d="M19.8,80.3h0.5L20,81.1c0.5-0.5,0.9-0.9,1.7-0.9c0.9,0,1.5,0.6,1.5,1.4c0,0.2,0,0.4-0.1,0.6l-0.7,2.5H22l0.7-2.6
		c0-0.2,0.1-0.4,0.1-0.5c0-0.7-0.5-1.1-1.2-1.1c-0.8,0-1.6,0.7-1.9,1.7L19,84.8h-0.5L19.8,80.3"/>
	<path d="M24.4,83.6c0-0.5,0.2-0.8,0.5-1.1c0.4-0.4,0.9-0.6,1.6-0.6s1.3,0.1,1.7,0.3l0-0.1c0-0.1,0-0.3,0-0.5c0-0.7-0.5-1-1.4-1
		c-0.5,0-0.9,0.1-1.3,0.2l-0.1-0.4c0.5-0.2,0.9-0.3,1.4-0.3c1.1,0,1.8,0.5,1.8,1.4c0,0.2,0,0.4-0.1,0.6l-0.7,2.6h-0.4l0.2-0.8
		c-0.5,0.5-1,0.9-1.8,0.9C25.1,84.9,24.4,84.4,24.4,83.6 M28,83l0.1-0.4c-0.5-0.1-1-0.2-1.7-0.2c-0.5,0-0.9,0.2-1.2,0.4
		s-0.3,0.5-0.3,0.8c0,0.5,0.4,0.9,1.1,0.9C26.8,84.5,27.7,83.9,28,83z"/>
	<path d="M31.2,80.3h0.5l-1.2,4.5H30L31.2,80.3 M31.6,78.5h0.5l-0.2,0.6h-0.5L31.6,78.5z"/>
	<path d="M32.4,84.1l0.3-0.3c0.5,0.5,1,0.7,1.7,0.7c0.6,0,1.2-0.4,1.2-0.9c0-0.4-0.2-0.6-1-0.9c-0.9-0.3-1.3-0.6-1.3-1.2
		c0-0.7,0.6-1.3,1.7-1.3c0.6,0,1.3,0.3,1.6,0.6L36.3,81c-0.4-0.3-0.9-0.5-1.4-0.5c-0.8,0-1.2,0.4-1.2,0.9c0,0.4,0.2,0.5,1,0.9
		c0.9,0.4,1.2,0.7,1.2,1.2c0,0.8-0.8,1.4-1.7,1.4C33.5,84.9,32.9,84.6,32.4,84.1"/>
	<path d="M37,84.1l0.3-0.3c0.5,0.5,1,0.7,1.7,0.7c0.6,0,1.2-0.4,1.2-0.9c0-0.4-0.2-0.6-1-0.9C38.4,82.3,38,82,38,81.4
		c0-0.7,0.6-1.3,1.7-1.3c0.6,0,1.3,0.3,1.6,0.6L41,81c-0.4-0.3-0.9-0.5-1.4-0.5c-0.8,0-1.2,0.4-1.2,0.9c0,0.4,0.2,0.5,1,0.9
		c0.9,0.4,1.2,0.7,1.2,1.2c0,0.8-0.8,1.4-1.7,1.4C38.3,84.9,37.6,84.6,37,84.1"/>
	<path d="M42.1,83.6c0-0.5,0.2-0.8,0.5-1.1c0.4-0.4,0.9-0.6,1.6-0.6c0.6,0,1.3,0.1,1.7,0.3l0-0.1c0-0.1,0-0.3,0-0.5
		c0-0.7-0.5-1-1.4-1c-0.5,0-0.9,0.1-1.3,0.2l-0.1-0.4c0.5-0.2,0.9-0.3,1.4-0.3c1.1,0,1.8,0.5,1.8,1.4c0,0.2,0,0.4-0.1,0.6l-0.7,2.6
		h-0.4l0.2-0.8c-0.5,0.5-1,0.9-1.8,0.9C42.8,84.9,42.1,84.4,42.1,83.6 M45.6,83l0.1-0.4c-0.5-0.1-1-0.2-1.7-0.2
		c-0.5,0-0.9,0.2-1.2,0.4s-0.3,0.5-0.3,0.8c0,0.5,0.4,0.9,1.1,0.9C44.4,84.5,45.4,83.9,45.6,83z"/>
	<path d="M48.8,80.3h0.5L49,81.1c0.5-0.5,0.9-0.9,1.7-0.9c0.9,0,1.5,0.6,1.5,1.4c0,0.2,0,0.4-0.1,0.6l-0.7,2.5H51l0.7-2.6
		c0-0.2,0.1-0.4,0.1-0.5c0-0.7-0.5-1.1-1.2-1.1c-0.8,0-1.6,0.7-1.9,1.7L48,84.8h-0.5L48.8,80.3"/>
	<path d="M53.6,82.9c0-0.8,0.3-1.5,0.9-2c0.5-0.5,1.1-0.8,1.8-0.8c0.9,0,1.5,0.5,1.8,1.1l-0.4,0.2c-0.3-0.5-0.7-0.9-1.4-0.9
		c-0.5,0-1,0.2-1.4,0.6c-0.5,0.5-0.7,1-0.7,1.7c0,1,0.7,1.6,1.5,1.6c0.6,0,1-0.3,1.4-0.6l0.3,0.3c-0.5,0.5-1,0.8-1.8,0.8
		C54.6,84.9,53.6,84.2,53.6,82.9"/>
	<path d="M59.4,82.7c0,0.1,0,0.2,0,0.3c0,0.9,0.6,1.5,1.5,1.5c0.7,0,1.1-0.2,1.5-0.6l0.3,0.3c-0.5,0.4-1,0.7-1.8,0.7
		c-1.1,0-1.9-0.8-1.9-1.9c0-0.8,0.3-1.5,0.9-2.1c0.5-0.5,1-0.8,1.7-0.8c1.1,0,1.7,0.8,1.7,1.7c0,0.3,0,0.5-0.1,0.8L59.4,82.7
		 M59.5,82.3h3.2c0-0.1,0-0.2,0-0.4c0-0.7-0.4-1.4-1.3-1.4c-0.5,0-1,0.2-1.4,0.6C59.8,81.4,59.6,81.9,59.5,82.3z"/>
	<polyline points="66.2,81.9 68.6,81.9 68.5,82.4 66.1,82.4 66.2,81.9 	"/>
	<path d="M74.7,78.5h0.5l1.2,6.2h-0.5L75.6,83h-3.7l-1.3,1.7h-0.5L74.7,78.5 M75.5,82.6l-0.7-3.6l-2.6,3.6H75.5z"/>
	<path d="M77.8,82.9c0-0.8,0.3-1.5,0.9-2c0.5-0.5,1.1-0.8,1.8-0.8c0.9,0,1.5,0.5,1.8,1.1l-0.4,0.2c-0.3-0.5-0.7-0.9-1.4-0.9
		c-0.5,0-1,0.2-1.4,0.6c-0.5,0.5-0.7,1-0.7,1.7c0,1,0.7,1.6,1.5,1.6c0.6,0,1-0.3,1.4-0.6l0.3,0.3c-0.5,0.5-1,0.8-1.8,0.8
		C78.8,84.9,77.8,84.2,77.8,82.9"/>
	<path d="M83.6,83.9c0-0.1,0-0.3,0-0.5l0.8-2.8h-0.6l0.1-0.4h0.6l0.4-1.4h0.5l-0.4,1.4h1.5l-0.1,0.4h-1.5l-0.8,2.9
		c0,0.1,0,0.3,0,0.4c0,0.4,0.3,0.5,0.7,0.5c0.2,0,0.4,0,0.6-0.1l-0.1,0.4c-0.2,0.1-0.4,0.1-0.6,0.1C84.1,84.8,83.6,84.6,83.6,83.9"
		/>
	<path d="M88.3,80.3h0.5l-1.2,4.5H87L88.3,80.3 M88.7,78.5h0.5L89,79.1h-0.5L88.7,78.5z"/>
	<path d="M94.5,82.2c0,0.7-0.3,1.4-0.8,1.9s-1.1,0.8-1.9,0.8c-1.2,0-2-0.9-2-2c0-0.7,0.3-1.4,0.8-1.9c0.5-0.5,1.1-0.8,1.9-0.8
		C93.7,80.1,94.5,81,94.5,82.2 M93.4,83.8c0.5-0.5,0.7-1,0.7-1.7c0-1-0.6-1.6-1.6-1.6c-0.5,0-1.1,0.3-1.4,0.6
		c-0.5,0.5-0.7,1-0.7,1.7c0,1,0.6,1.6,1.6,1.6C92.5,84.5,93,84.2,93.4,83.8z"/>
	<path d="M96.9,80.3h0.5l-0.2,0.9c0.5-0.5,0.9-0.9,1.7-0.9c0.9,0,1.5,0.6,1.5,1.4c0,0.2,0,0.4-0.1,0.6l-0.7,2.5h-0.5l0.7-2.6
		c0-0.2,0.1-0.4,0.1-0.5c0-0.7-0.5-1.1-1.2-1.1c-0.8,0-1.6,0.7-1.9,1.7l-0.7,2.5h-0.5L96.9,80.3"/>
	<path d="M29.5,44.4h11c6.4,0,10.3,3.8,10.3,9.3v0.1c0,6.2-4.8,9.4-10.9,9.4h-4.5v8.1h-5.9V44.4 M40.1,58c3,0,4.7-1.8,4.7-4.1v-0.1
		c0-2.7-1.9-4.1-4.8-4.1h-4.6V58H40.1z"/>
	<polyline points="53.4,44.4 73.7,44.4 73.7,49.7 59.3,49.7 59.3,55.2 71.9,55.2 71.9,60.5 59.3,60.5 59.3,66.1 73.9,66.1 
		73.9,71.3 53.4,71.3 53.4,44.4 	"/>
	<path d="M75.4,58L75.4,58c0-7.7,5.8-14,14-14c5.1,0,8.1,1.7,10.6,4.2l-3.7,4.3c-2.1-1.9-4.2-3-6.9-3c-4.5,0-7.8,3.7-7.8,8.4v0.1
		c0,4.6,3.2,8.4,7.8,8.4c3.1,0,5-1.2,7.1-3.2l3.7,3.8c-2.8,3-5.8,4.8-11,4.8C81.3,71.8,75.4,65.7,75.4,58"/>
	<path d="M17.5,59.9c0,4.3-2.2,6.5-5.8,6.5s-5.8-2.3-5.8-6.6V44.4H0v15.4c0,7.9,4.4,12,11.6,12s11.8-4,11.8-12.1l0-18.4l-6,2V59.9"
		/>
	<polyline class="st0" points="23.5,25.7 23.5,41.2 99.6,15.6 99.6,0.1 23.5,25.7 	"/>
	<rect x="109.8" y="31.2" width="0.7" height="53.4"/>
</g>
</svg>
